<svg viewBox="0 0 1920 1280">
<clipPath id="01" clipPathUnits="objectBoundingBox"><rect x="0" y="0" width="1920" height="1280"></rect></clipPath>
<clipPath id="02" clipPathUnits="objectBoundingBox"><rect x="0" y="0" width="1920" height="1280"></rect></clipPath>
<clipPath id="03" clipPathUnits="objectBoundingBox"><rect x="0" y="0" width="1920" height="1280"></rect></clipPath>
<clipPath id="04" clipPathUnits="objectBoundingBox"><rect x="0" y="0" width="1920" height="1280"></rect></clipPath>
<clipPath id="05" clipPathUnits="objectBoundingBox"><rect x="0" y="0" width="1920" height="1280"></rect></clipPath>
<clipPath id="06" clipPathUnits="objectBoundingBox"><rect x="0" y="0" width="1920" height="1280"></rect></clipPath>
<clipPath id="07" clipPathUnits="objectBoundingBox"><rect x="0" y="0" width="1920" height="1280"></rect></clipPath>
<clipPath id="08" clipPathUnits="objectBoundingBox"><rect x="0" y="0" width="1920" height="1280"></rect></clipPath>
<clipPath id="09" clipPathUnits="objectBoundingBox"><rect x="0" y="0" width="1920" height="1280"></rect></clipPath>
<clipPath id="10" clipPathUnits="objectBoundingBox"><rect x="0" y="0" width="1920" height="1280"></rect></clipPath>
<clipPath id="11" clipPathUnits="objectBoundingBox"><rect x="0" y="0" width="1920" height="1280"></rect></clipPath>
<clipPath id="12" clipPathUnits="objectBoundingBox"><rect x="0" y="0" width="1920" height="1280"></rect></clipPath>
<clipPath id="13" clipPathUnits="objectBoundingBox"><rect x="0" y="0" width="1920" height="1280"></rect></clipPath>
<clipPath id="14" clipPathUnits="objectBoundingBox"><rect x="0" y="0" width="1920" height="1280"></rect></clipPath>
<clipPath id="15" clipPathUnits="objectBoundingBox"><rect x="0" y="0" width="1920" height="1280"></rect></clipPath>
<clipPath id="16" clipPathUnits="objectBoundingBox"><rect x="0" y="0" width="1920" height="1280"></rect></clipPath>
<clipPath id="17" clipPathUnits="objectBoundingBox"><rect x="0" y="0" width="1920" height="1280"></rect></clipPath>
<clipPath id="18" clipPathUnits="objectBoundingBox"><rect x="0" y="0" width="1920" height="1280"></rect></clipPath>
<clipPath id="19" clipPathUnits="objectBoundingBox"><rect x="0" y="0" width="1920" height="1280"></rect></clipPath>
<clipPath id="20" clipPathUnits="objectBoundingBox"><rect x="0" y="0" width="1920" height="1280"></rect></clipPath>
<clipPath id="21" clipPathUnits="objectBoundingBox"><rect x="0" y="0" width="1920" height="1280"></rect></clipPath>
<clipPath id="22" clipPathUnits="objectBoundingBox"><rect x="0" y="0" width="1920" height="1280"></rect></clipPath>
<clipPath id="23" clipPathUnits="objectBoundingBox"><rect x="0" y="0" width="1920" height="1280"></rect></clipPath>
<clipPath id="24" clipPathUnits="objectBoundingBox"><rect x="0" y="0" width="1920" height="1280"></rect></clipPath>
<clipPath id="25" clipPathUnits="objectBoundingBox"><rect x="0" y="0" width="1920" height="1280"></rect></clipPath>
<clipPath id="26" clipPathUnits="objectBoundingBox"><rect x="0" y="0" width="1920" height="1280"></rect></clipPath>
<clipPath id="27" clipPathUnits="objectBoundingBox"><rect x="0" y="0" width="1920" height="1280"></rect></clipPath>
<clipPath id="28" clipPathUnits="objectBoundingBox"><rect x="0" y="0" width="1920" height="1280"></rect></clipPath>
<clipPath id="29" clipPathUnits="objectBoundingBox"><polygon points="126.862751 1280 112.99154 0 1920 0 1920 1280"></polygon></clipPath>
<clipPath id="30" clipPathUnits="objectBoundingBox"><path d="M0,0 L336.404619,0 L347.241022,1280 L0,1280 L0,0 Z M489.094113,0 L1920,0 L1920,1280 L502.911565,1280 L489.094113,0 Z"></path></clipPath>
<clipPath id="31" clipPathUnits="objectBoundingBox"><path d="M0,0 L681.66353,0 L701.476295,1280 L0,1280 L0,0 Z M823.458494,0 L1920,0 L1920,1280 L842.723211,1280 L823.458494,0 Z"></path></clipPath>
<clipPath id="32" clipPathUnits="objectBoundingBox"><path d="M0,0 L1055.77367,0 L1074.57512,1280 L0,1280 L0,0 Z M1196.50736,0 L1920,0 L1920,1280 L1210.64144,1280 L1196.50736,0 Z"></path></clipPath>
<clipPath id="33" clipPathUnits="objectBoundingBox"><path d="M0,0 L1441.50509,0 L1459.24197,1280 L0,1280 L0,0 Z M1595.85378,0 L1920,0 L1920,1280 L1612.98799,1280 L1595.85378,0 Z"></path></clipPath>
<clipPath id="34" clipPathUnits="objectBoundingBox"><polygon points="0 0 0 1280 1870.91006 1280 1848.09231 0"></polygon></clipPath>
<clipPath id="35" clipPathUnits="objectBoundingBox"><rect x="0" y="0" width="1920" height="1280"></rect></clipPath>
<clipPath id="36" clipPathUnits="objectBoundingBox"><rect x="0" y="0" width="1920" height="1280"></rect></clipPath>
<clipPath id="37" clipPathUnits="objectBoundingBox"><rect x="0" y="0" width="1920" height="1280"></rect></clipPath>
</svg>