<svg xmlns="http://www.w3.org/2000/svg" style="display: none;">

    <symbol id="icon-minimap" viewBox="0 0 128 128">
        <path d="M64,119 C68.418278,119 72,115.418278 72,111 C72,106.581722 68.418278,103 64,103 C59.581722,103 56,106.581722 56,111 C56,115.418278 59.581722,119 64,119 Z M78.938273,109.629971 C98.1338706,103.349696 112,85.2941521 112,64 C112,37.490332 90.509668,16 64,16 C37.490332,16 16,37.490332 16,64 C16,85.2941521 29.8661294,103.349696 49.061727,109.629971 C49.020873,110.081177 49,110.538151 49,111 C49,113.250695 49.4956988,115.385613 50.3838779,117.301537 C26.5941039,111.242637 9,89.6759799 9,64 C9,33.6243388 33.6243388,9 64,9 C94.3756612,9 119,33.6243388 119,64 C119,89.6759799 101.405896,111.242637 77.6161221,117.301537 C78.5043012,115.385613 79,113.250695 79,111 C79,110.538151 78.979127,110.081177 78.938273,109.629971 Z M76.7803962,103.143494 C74.1399332,98.8573181 69.4036478,96 64,96 C58.5364566,96 53.755152,98.9210119 51.1325752,103.286547 L33.2838959,92.942773 C39.5772353,82.1855522 50.9652037,75 63.968806,75 C76.8890191,75 88.2142533,82.0936892 94.5320152,92.7362639 L76.7803962,103.143494 Z"></path>
    </symbol>
    <symbol id="icon-minimap-center" viewBox="0 0 128 128">
        <polygon points="62 55 62 48 69 48 69 55 76 55 65 70 54 55"></polygon>
    </symbol>

    <symbol id="icon-fullscreen-on" viewBox="0 0 128 128">
        <path d="M23,16.5 L105,16.5 C108.589851,16.5 111.5,19.4101491 111.5,23 L111.5,105 C111.5,108.589851 108.589851,111.5 105,111.5 L23,111.5 C19.4101491,111.5 16.5,108.589851 16.5,105 L16.5,23 C16.5,19.4101491 19.4101491,16.5 23,16.5 Z M35.0502525,40.2928932 L29.3933983,45.9497475 L47.7781746,48.7781746 L44.9497475,30.3933983 L40,35.3431458 L35.0502525,30.3933983 L30.1005051,35.3431458 L35.0502525,40.2928932 Z M92.9497475,40.2928932 L97.8994949,35.3431458 L92.9497475,30.3933983 L88,35.3431458 L83.0502525,30.3933983 L80.2218254,48.7781746 L98.6066017,45.9497475 L92.9497475,40.2928932 Z M35.0502525,88.7071068 L30.1005051,93.6568542 L35.0502525,98.6066017 L40,93.6568542 L44.9497475,98.6066017 L47.7781746,80.2218254 L29.3933983,83.0502525 L35.0502525,88.7071068 Z M97.8994949,93.6568542 L92.9497475,88.7071068 L98.6066017,83.0502525 L80.2218254,80.2218254 L83.0502525,98.6066017 L88,93.6568542 L92.9497475,98.6066017 L97.8994949,93.6568542 Z"></path>
    </symbol>
    <symbol id="icon-fullscreen-off" viewBox="0 0 128 128">
        <path d="M32.9497475,26.7071068 L37.8994949,31.6568542 L32.9497475,36.6066017 L28,31.6568542 L23.0502525,36.6066017 L20.2218254,18.2218254 L38.6066017,21.0502525 L32.9497475,26.7071068 Z M95.0502525,26.7071068 L89.3933983,21.0502525 L107.778175,18.2218254 L104.949747,36.6066017 L100,31.6568542 L95.0502525,36.6066017 L90.1005051,31.6568542 L95.0502525,26.7071068 Z M32.9497475,101.292893 L38.6066017,106.949747 L20.2218254,109.778175 L23.0502525,91.3933983 L28,96.3431458 L32.9497475,91.3933983 L37.8994949,96.3431458 L32.9497475,101.292893 Z M90.1005051,96.3431458 L95.0502525,91.3933983 L100,96.3431458 L104.949747,91.3933983 L107.778175,109.778175 L89.3933983,106.949747 L95.0502525,101.292893 L90.1005051,96.3431458 Z M47,40.5 L81,40.5 C84.5898509,40.5 87.5,43.4101491 87.5,47 L87.5,81 C87.5,84.5898509 84.5898509,87.5 81,87.5 L47,87.5 C43.4101491,87.5 40.5,84.5898509 40.5,81 L40.5,47 C40.5,43.4101491 43.4101491,40.5 47,40.5 Z"></path>
    </symbol>
    
    <symbol id="icon-sound-on" viewBox="0 0 128 128">
        <path d="M42.1276596,46.6498376 L64.2204123,32.705555 C65.3713245,31.9791337 66.8932039,32.3232516 67.6196252,33.4741638 C67.8681172,33.8678645 68,34.3239033 68,34.7894659 L68,93.2111298 C68,94.5721172 66.8967017,95.6754155 65.5357143,95.6754155 C65.0701517,95.6754155 64.6141129,95.5435328 64.2204123,95.2950407 L42.1276596,81.3507581 L32.4642857,81.3507581 C31.1032983,81.3507581 30,80.2474598 30,78.8864724 L30,49.1141233 C30,47.7531358 31.1032983,46.6498376 32.4642857,46.6498376 L42.1276596,46.6498376 Z M74.5,79.5 L74.5,72.5 C79.4705627,72.5 83.5,68.4705627 83.5,63.5 C83.5,58.5294373 79.4705627,54.5 74.5,54.5 L74.5,47.5 C83.336556,47.5 90.5,54.663444 90.5,63.5 C90.5,72.336556 83.336556,79.5 74.5,79.5 Z M74.25,91 L74.25,84 C85.5718374,84 94.75,74.8218374 94.75,63.5 C94.75,52.1781626 85.5718374,43 74.25,43 L74.25,36 C89.4378306,36 101.75,48.3121694 101.75,63.5 C101.75,78.6878306 89.4378306,91 74.25,91 Z"></path>
    </symbol>
    <symbol id="icon-sound-off" viewBox="0 0 128 128">
        <path d="M42.1276596,46.6498376 L64.2204123,32.705555 C65.3713245,31.9791337 66.8932039,32.3232516 67.6196252,33.4741638 C67.8681172,33.8678645 68,34.3239033 68,34.7894659 L68,93.2111298 C68,94.5721172 66.8967017,95.6754155 65.5357143,95.6754155 C65.0701517,95.6754155 64.6141129,95.5435328 64.2204123,95.2950407 L42.1276596,81.3507581 L32.4642857,81.3507581 C31.1032983,81.3507581 30,80.2474598 30,78.8864724 L30,49.1141233 C30,47.7531358 31.1032983,46.6498376 32.4642857,46.6498376 L42.1276596,46.6498376 Z M93.7939452,64.8441978 L102.829936,73.8801885 L97.8801885,78.8299359 L88.8441978,69.7939452 L79.8082071,78.8299359 L74.8584596,73.8801885 L83.8944503,64.8441978 L74.8584596,55.8082071 L79.8082071,50.8584596 L88.8441978,59.8944503 L97.8801885,50.8584596 L102.829936,55.8082071 L93.7939452,64.8441978 Z"></path>
    </symbol>

    <symbol id="icon-head-move" viewBox="0 0 128 128">
        <path d="M101,62 L94,62 L94,55 L101,55 L101,47 L116,58 L101,69 L101,62 Z M27,55 L34,55 L34,62 L27,62 L27,69 L12,58 L27,47 L27,55 Z M97.8184019,84.5518468 C99.7627119,85.6864569 100.911622,87.8683995 101,90.1376197 L101,96.6834473 C101,98.5162791 99.4975787,100 97.6416465,100 L31.3583535,100 C29.5024213,100 28,98.5162791 28,96.6834473 L28,90.1376197 C28,87.8683995 29.1489104,85.6864569 31.0932203,84.5518468 C34.4515738,82.5444596 40.2845036,79.4024624 47.1779661,77.0459644 C52.4806295,85.5119015 60.2578692,86.821067 64.5883777,86.821067 C68.8305085,86.821067 76.6077482,85.5119015 81.9987893,77.1332421 C88.7154964,79.4897401 94.4600484,82.5444596 97.8184019,84.5518468 Z M64.5883777,34 C73.779661,34 81.2033898,41.5931601 81.2033898,50.9318741 C81.2033898,60.2705882 79.6125908,79.8207934 64.5883777,79.8207934 C49.5641646,79.8207934 47.9733656,60.3578659 47.9733656,50.9318741 C47.9733656,41.5931601 55.3970944,34 64.5883777,34 Z"></path>
    </symbol>
    <symbol id="icon-head-move-off" viewBox="0 0 128 128">
        <path d="M48.0321681,54.0117193 C48.0315053,53.9946954 48.0308489,53.9776881 48.030199,53.9606976 L18.4450028,24.3755014 C17.0781678,23.0086663 17.0781678,20.7925889 18.4450028,19.4257539 C19.8118378,18.0589189 22.0279153,18.0589189 23.3947503,19.4257539 L49.0075598,45.0385634 C51.3539626,38.598022 57.4360007,34 64.5883777,34 C73.779661,34 81.2033898,41.5931601 81.2033898,50.9318741 C81.2033898,56.6476481 80.6074653,66.1887185 76.7003557,72.7313593 L81.6417849,77.6727885 C81.7618826,77.4962848 81.8809065,77.3164536 81.9987893,77.1332421 C88.7154964,79.4897401 94.4600484,82.5444596 97.8184019,84.5518468 C99.7627119,85.6864569 100.911622,87.8683995 101,90.1376197 L101,96.6834473 C101,96.7951854 100.994416,96.9056259 100.983508,97.0145118 L108.39475,104.425754 C109.761585,105.792589 109.761585,108.008666 108.39475,109.375501 C107.027915,110.742336 104.811838,110.742336 103.445003,109.375501 L94.0695015,100 L94.0223633,100 L76.8226322,82.8009867 C76.8317105,82.7941229 76.8407881,82.7872485 76.8498643,82.7803628 L71.9009856,77.8314841 C71.8911561,77.8376779 71.8813164,77.8438591 71.8714666,77.8500276 L48.0321683,54.0117241 Z M49.5627717,65.4417134 L63.9297438,79.808086 C55.4720557,79.4785757 51.445917,72.7895263 49.5627717,65.4417134 Z M70.1876221,86.0657032 L84.1225004,100 L31.3583535,100 C29.5024213,100 28,98.5162791 28,96.6834473 L28,90.1376197 C28,87.8683995 29.1489104,85.6864569 31.0932203,84.5518468 C34.4515738,82.5444596 40.2845036,79.4024624 47.1779661,77.0459644 C52.4806295,85.5119015 60.2578692,86.821067 64.5883777,86.821067 C66.0966298,86.821067 68.0517532,86.6555761 70.1876221,86.0657032 Z M101,62 L94,62 L94,55 L101,55 L101,47 L116,58 L101,69 L101,62 Z M27,55 L34,55 L34,62 L27,62 L27,69 L12,58 L27,47 L27,55 Z"></path>
    </symbol>
    <symbol id="icon-touch-drag" viewBox="0 0 128 128">
        <path d="M101,62 L94,62 L94,55 L101,55 L101,47 L116,58 L101,69 L101,62 Z M27,55 L34,55 L34,62 L27,62 L27,69 L12,58 L27,47 L27,55 Z M69.9621104,41 C69.9872171,40.6699584 70,40.336472 70,40 C70,32.8202983 64.1797017,27 57,27 C49.8202983,27 44,32.8202983 44,40 C44,40.336472 44.0127829,40.6699584 44.0378896,41 L44,41 L44,56.4935277 C39.1274959,52.6478094 36,46.6891376 36,40 C36,28.4020203 45.4020203,19 57,19 C68.5979797,19 78,28.4020203 78,40 C78,46.6891376 74.8725041,52.6478094 70,56.4935277 L70,41 L69.9621104,41 Z M67.4731547,59.838568 C72.4657245,59.838568 81.3112267,63.9016571 84.0522381,65.1740497 C86.7932495,66.4464422 88.4693079,67.7651397 89.3061282,70.7492444 C90.1641333,73.8087525 90.2181704,76.9246778 89.5140005,81.4868684 C88.8397289,85.8552662 87.5399773,90.3324995 85.8345008,94.1628423 C84.0411418,98.1904517 82.176069,100.934534 80.071127,102.541102 L55.3563842,102.541102 C48.9980168,95.2004977 43.2817655,85.0041384 37.8828997,72.0768932 C37.0323926,69.8867179 36.8184493,68.3567515 37.146203,67.1630432 C37.3587217,66.3924205 38.9767188,62.6139658 43.1096634,63.6593236 C43.9100166,63.8617593 44.9921488,64.3615988 46.0166435,66.2170448 C46.7113512,67.4752186 49.0648117,71.4601689 50.2590044,73.4092291 C50.8067348,74.3031884 51.8774381,74.0032372 51.8774381,73.154561 L51.8774381,41.6787565 C51.8774381,38.8901771 54.2009475,36.5681818 56.9913022,36.5681818 C59.7816569,36.5681818 62.1051663,38.8901771 62.1051663,41.6787565 L62.1051663,61.7308962 C63.7805457,60.469344 65.5698752,59.838568 67.4731547,59.838568 Z"></path>
    </symbol>
    <symbol id="icon-touch-drag-off" viewBox="0 0 128 128">
        <path d="M36.1019046,42.0819584 C36.1001047,42.0636704 36.0983283,42.0453756 36.0965754,42.0270739 L18.4450028,24.3755014 C17.0781678,23.0086663 17.0781678,20.7925889 18.4450028,19.4257539 C19.8118378,18.0589189 22.0279153,18.0589189 23.3947503,19.4257539 L37.1365273,33.1675309 C39.9715481,24.923791 47.7939863,19 57,19 C68.5979797,19 78,28.4020203 78,40 C78,46.6891376 74.8725041,52.6478094 70,56.4935277 L70,41 L69.9621104,41 C69.9872171,40.6699584 70,40.336472 70,40 C70,32.8202983 64.1797017,27 57,27 C49.8202983,27 44,32.8202983 44,40 C44,40.0103495 44.0000121,40.0206961 44.0000363,40.0310399 L51.8774381,47.9084417 L51.8774381,41.6787565 C51.8774381,38.8901771 54.2009475,36.5681818 56.9913022,36.5681818 C59.7816569,36.5681818 62.1051663,38.8901771 62.1051663,41.6787565 L62.1051663,58.1361699 L64.3958414,60.426845 C65.3861883,60.0346603 66.4119594,59.838568 67.4731547,59.838568 C72.4657245,59.838568 81.3112267,63.9016571 84.0522381,65.1740497 C86.7932495,66.4464422 88.4693079,67.7651397 89.3061282,70.7492444 C90.1641333,73.8087525 90.2181704,76.9246778 89.5140005,81.4868684 C89.3389802,82.6207712 89.1218173,83.7620069 88.8663552,84.8973588 L108.39475,104.425754 C109.761585,105.792589 109.761585,108.008666 108.39475,109.375501 C107.027915,110.742336 104.811838,110.742336 103.445003,109.375501 L86.5437453,92.4742439 C86.5392611,92.4855779 86.5347704,92.4969039 86.5302762,92.5082256 L51.8774381,57.8568335 L51.8774381,57.8079367 L44,49.9304985 L44,49.9797241 L36.1018778,42.0819315 Z M51.8774381,67.7562833 L83.1960026,99.0735409 C82.2038122,100.55335 81.1701652,101.702276 80.071127,102.541102 L55.3563842,102.541102 C48.9980168,95.2004977 43.2817655,85.0041384 37.8828997,72.0768932 C37.0323926,69.8867179 36.8184493,68.3567515 37.146203,67.1630432 C37.3587217,66.3924205 38.9767188,62.6139658 43.1096634,63.6593236 C43.9100166,63.8617593 44.9921488,64.3615988 46.0166435,66.2170448 C46.7113512,67.4752186 49.0648117,71.4601689 50.2590044,73.4092291 C50.8067348,74.3031884 51.8774381,74.0032372 51.8774381,73.154561 L51.8774381,67.7562833 Z M101,62 L94,62 L94,55 L101,55 L101,47 L116,58 L101,69 L101,62 Z M27,55 L34,55 L34,62 L27,62 L27,69 L12,58 L27,47 L27,55 Z"></path>
    </symbol>
    <symbol id="icon-mouse-drag" viewBox="0 0 128 128">
        <path d="M101,62 L94,62 L94,55 L101,55 L101,47 L116,58 L101,69 L101,62 Z M27,55 L34,55 L34,62 L27,62 L27,69 L12,58 L27,47 L27,55 Z M68.4731547,51.2723125 C73.4657245,51.2723125 82.3112267,55.337795 85.0522381,56.6109371 C87.7932495,57.8840791 89.4693079,59.2035534 90.3061282,62.1894158 C91.1641333,65.2507261 91.2181704,70.3684867 90.5140005,74.9333647 C89.8397289,79.3043356 88.5399773,83.7842062 86.8345008,87.6168052 C85.0411418,91.6467871 83.176069,94.3924861 81.071127,96 L56.3563842,96 C49.9980168,88.6550718 44.2817655,78.4527065 38.8828997,65.5178466 C38.0323926,63.3263812 37.8184493,61.7955136 38.146203,60.6011021 C38.3587217,59.8300255 39.9767188,56.0493452 44.1096634,57.0953188 C44.9100166,57.2978737 45.9921488,57.7980076 47.0166435,59.6545465 C47.7113512,60.9134615 50.0648117,64.9007591 51.2590044,66.8509673 C51.8067348,67.7454532 52.8774381,67.4453253 52.8774381,66.5961492 L52.8774381,53.1135851 C52.8774381,50.323363 55.0008843,48 58.9913022,48 C62.9817202,48 64.5,51.2723125 68.4731547,51.2723125 Z"></path>
    </symbol>
    <symbol id="icon-mouse-drag-off" viewBox="0 0 128 128">
        <path d="M52.8774381,58.8567918 L52.8774381,58.8079367 L18.4450028,24.3755014 C17.0781678,23.0086663 17.0781678,20.7925889 18.4450028,19.4257539 C19.8118378,18.0589189 22.0279153,18.0589189 23.3947503,19.4257539 L53.9682086,49.9992122 C54.9748711,48.7888303 56.6661487,48 58.9913022,48 C62.9817202,48 64.5,51.2723125 68.4731547,51.2723125 C73.4657245,51.2723125 82.3112267,55.337795 85.0522381,56.6109371 C87.7932495,57.8840791 89.4693079,59.2035534 90.3061282,62.1894158 C91.1641333,65.2507261 91.2181704,70.3684867 90.5140005,74.9333647 C90.0310923,78.0638208 89.2273557,81.2501351 88.1835194,84.2145221 L108.39475,104.425754 C109.761585,105.792589 109.761585,108.008666 108.39475,109.375501 C107.027915,110.742336 104.811838,110.742336 103.445003,109.375501 L85.1145339,91.0450325 C85.1087592,91.0551054 85.1029833,91.0651664 85.0972061,91.0752153 L52.8774381,58.8567918 Z M41.2753142,57.1546018 L80.1223335,96 L56.3563842,96 C49.9980168,88.6550718 44.2817655,78.4527065 38.8828997,65.5178466 C38.0323926,63.3263812 37.8184493,61.7955136 38.146203,60.6011021 C38.3009729,60.0395541 39.2011659,57.8818035 41.2753142,57.1546018 Z M101,62 L94,62 L94,55 L101,55 L101,47 L116,58 L101,69 L101,62 Z M27,55 L34,55 L34,62 L27,62 L27,69 L12,58 L27,47 L27,55 Z"></path>
    </symbol>
    <symbol id="icon-device-orientation" viewBox="0 0 128 128">
        <path d="M101,84 L94,84 L94,77 L101,77 L101,69 L116,80 L101,91 L101,84 Z M27,43 L34,43 L34,50 L27,50 L27,57 L12,46 L27,35 L27,43 Z M66.8407542,33.7409949 L87.860469,45.8767329 C90.2519321,47.2574448 91.0713079,50.3153968 89.690596,52.7068599 L66.2608489,93.2883724 C64.880137,95.6798355 61.822185,96.4992113 59.4307218,95.1184994 L38.411007,82.9827614 C36.0195439,81.6020495 35.2001681,78.5440975 36.58088,76.1526344 L60.0106272,35.5711219 C61.391339,33.1796588 64.4492911,32.360283 66.8407542,33.7409949 Z"></path>
    </symbol>
    <symbol id="icon-device-orientation-off" viewBox="0 0 128 128">
        <path d="M48.8764909,54.8560116 L48.8944343,54.8249328 L18.4450028,24.3755014 C17.0781678,23.0086663 17.0781678,20.7925889 18.4450028,19.4257539 C19.8118378,18.0589189 22.0279153,18.0589189 23.3947503,19.4257539 L52.5179009,48.5489045 L60.0106272,35.5711219 C61.391339,33.1796588 64.4492911,32.360283 66.8407542,33.7409949 L87.860469,45.8767329 C90.2519321,47.2574448 91.0713079,50.3153968 89.690596,52.7068599 L77.6063626,73.6373662 L108.39475,104.425754 C109.761585,105.792589 109.761585,108.008666 108.39475,109.375501 C107.027915,110.742336 104.811838,110.742336 103.445003,109.375501 L73.982896,79.9133945 L73.9653358,79.9438095 L48.8764909,54.8560116 Z M45.2529855,61.1321071 L70.3418304,86.2199051 L66.2608489,93.2883724 C64.880137,95.6798355 61.822185,96.4992113 59.4307218,95.1184994 L38.411007,82.9827614 C36.0195439,81.6020495 35.2001681,78.5440975 36.58088,76.1526344 L45.2529855,61.1321071 Z M27.1201217,43 L34,49.8795912 L34,50 L27,50 L27,57 L12,46 L22.453804,38.333877 L27,42.8798833 L27,43 L27.1201217,43 Z M101,84 L94,84 L94,77 L101,77 L101,69 L116,80 L101,91 L101,84 Z"></path>
    </symbol>
    <symbol id="icon-mouse-move" viewBox="0 0 128 128">
        <path d="M101,62 L94,62 L94,55 L101,55 L101,47 L116,58 L101,69 L101,62 Z M27,55 L34,55 L34,62 L27,62 L27,69 L12,58 L27,47 L27,55 Z M75.8857143,78.9539995 L81.4581429,92.5337243 C82.2561429,94.4945781 81.8625714,96.823769 80.2692857,98.4135772 C78.1494286,100.528808 74.7131429,100.528808 72.5932857,98.4135772 C72.064,97.8881551 71.6704286,97.2814821 71.3962857,96.6125168 L65.9052857,83.2223773 L52,89.1672309 L52,35 L90,72.9170616 L75.8857143,78.9539995 Z"></path>
    </symbol>
    <symbol id="icon-mouse-move-off" viewBox="0 0 128 128">
        <path d="M77.9108548,83.8891638 L52,57.9793903 L52,57.9304985 L18.4450028,24.3755014 C17.0781678,23.0086663 17.0781678,20.7925889 18.4450028,19.4257539 C19.8118378,18.0589189 22.0279153,18.0589189 23.3947503,19.4257539 L52,48.0310036 L52,35 L90,72.9170616 L80.8147551,76.8457587 L108.39475,104.425754 C109.761585,105.792589 109.761585,108.008666 108.39475,109.375501 C107.027915,110.742336 104.811838,110.742336 103.445003,109.375501 L77.8775825,83.8080811 L77.9108548,83.8891638 Z M81.2335075,97.1111276 C80.9858155,97.5794927 80.6644496,98.0192758 80.2692857,98.4135772 C78.1494286,100.528808 74.7131429,100.528808 72.5932857,98.4135772 C72.064,97.8881551 71.6704286,97.2814821 71.3962857,96.6125168 L65.9052857,83.2223773 L52,89.1672309 L52,67.8788401 L81.2335075,97.1111276 Z M101,62 L94,62 L94,55 L101,55 L101,47 L116,58 L101,69 L101,62 Z M27,55 L34,55 L34,62 L27,62 L27,69 L12,58 L27,47 L27,55 Z"></path>
    </symbol>

</svg>