<?xml version="1.0" encoding="UTF-8"?>
<svg width="32px" height="32px" viewBox="0 0 32 32" version="1.1" xmlns="http://www.w3.org/2000/svg" xmlns:xlink="http://www.w3.org/1999/xlink">
    <path d="M14.8032449,25.025 L6.7,25.025 C6.175,25.025 5.75,24.6 5.75,24.075 L5.75,22.2 C5.75,21.55 6.075,20.925 6.625,20.6 C7.575,20.025 9.225,19.125 11.175,18.45 C11.8579882,19.5541643 12.6861014,20.2333199 13.5012216,20.6455847 C13.5282273,22.2536456 14.0017849,23.7530006 14.8032449,25.025 Z M20.7787921,12.0870723 C17.2969428,12.5880386 14.4970309,15.199335 13.7170675,18.5829497 C11.6657063,16.9469982 11.4,13.174715 11.4,11.1 C11.4,8.425 13.5,6.25 16.1,6.25 C18.7,6.25 20.8,8.425 20.8,11.1 C20.8,11.3968806 20.7944572,11.7297893 20.7787921,12.0870723 Z M22,27.375 C18.2030423,27.375 15.125,24.2969577 15.125,20.5 C15.125,16.7030423 18.2030423,13.625 22,13.625 C25.7969577,13.625 28.875,16.7030423 28.875,20.5 C28.875,24.2969577 25.7969577,27.375 22,27.375 Z M22,25.625 C24.8304593,25.625 27.125,23.3304593 27.125,20.5 C27.125,17.6695407 24.8304593,15.375 22,15.375 C19.1695407,15.375 16.875,17.6695407 16.875,20.5 C16.875,23.3304593 19.1695407,25.625 22,25.625 Z M25.25,17.25 L22.8874813,21.3874813 L18.75,23.75 L21.1125187,19.6125187 L25.25,17.25 Z" id="Flat"></path>
</svg>