<?xml version="1.0" encoding="UTF-8"?>
<svg width="32px" height="32px" viewBox="0 0 32 32" version="1.1" xmlns="http://www.w3.org/2000/svg" xmlns:xlink="http://www.w3.org/1999/xlink">

    <path d="M14.8032449,25.025 L6.7,25.025 C6.175,25.025 5.75,24.6 5.75,24.075 L5.75,22.2 C5.75,21.55 6.075,20.925 6.625,20.6 C7.575,20.025 9.225,19.125 11.175,18.45 C11.8579882,19.5541643 12.6861014,20.2333199 13.5012216,20.6455847 C13.5282273,22.2536456 14.0017849,23.7530006 14.8032449,25.025 Z M27.1332953,25.0733875 L25.80171,23.9370101 C25.8044532,23.9339776 25.8071929,23.9309419 25.809929,23.9279028 L22.8549069,21.4060814 L22.8435889,21.412544 L20.9886172,19.8295076 L20.9948065,19.8186682 L18.0156677,17.2762654 C18.0130937,17.2794427 18.0105235,17.2826231 18.0079571,17.2858066 L16.6763715,16.149429 C16.6789606,16.1462647 16.6815524,16.1431027 16.6841469,16.1399431 L15.4478598,15.0848933 C15.4452537,15.088043 15.4426498,15.0911947 15.4400482,15.0943483 L11.4064203,11.6520426 C11.406291,11.6465525 11.406164,11.6410704 11.4060391,11.6355959 L6.28952111,7.26914971 C5.92193238,6.95544879 5.87824768,6.4031544 6.1919486,6.03556566 C6.50564952,5.66797693 7.05794392,5.62429222 7.42553265,5.93799315 L11.6479758,9.54143415 C12.2764527,7.62902329 14.0297179,6.25 16.1,6.25 C18.7,6.25 20.8,8.425 20.8,11.1 C20.8,11.3968806 20.7944572,11.7297893 20.7787921,12.0870723 C19.2503527,12.3069832 17.8533211,12.9335498 16.7008785,13.8535909 L17.9654019,14.9327376 C19.0985588,14.1101148 20.4926271,13.625 22,13.625 C25.7969577,13.625 28.875,16.7030423 28.875,20.5 C28.875,21.6192245 28.6075532,22.6759834 28.1330815,23.6098547 L29.5680058,24.8344217 C29.9355945,25.1481226 29.9792792,25.700417 29.6655783,26.0680058 C29.3518774,26.4355945 28.799583,26.4792792 28.4319942,26.1655783 L27.1414496,25.064225 C27.1387341,25.0672816 27.136016,25.0703358 27.1332952,25.0733875 Z M25.7960953,26.2328495 C24.7083114,26.9545887 23.4032519,27.375 22,27.375 C18.2030423,27.375 15.125,24.2969577 15.125,20.5 C15.125,19.4840459 15.3453694,18.5195617 15.7409157,17.6517402 L17.1460898,18.8509184 C16.9703273,19.3684194 16.875,19.9230772 16.875,20.5 C16.875,23.3304593 19.1695407,25.625 22,25.625 C22.8636727,25.625 23.6774473,25.4113611 24.3913609,25.0340465 L25.7960953,26.2328495 Z M14.464894,16.5627808 C14.1345511,17.1936997 13.881125,17.8712399 13.7170675,18.5829497 C12.4806082,17.5968789 11.8928923,15.834661 11.6210747,14.13586 L14.464894,16.5627808 Z M21.2284378,22.3348019 L18.75,23.75 L20.1053568,21.3763624 L21.2284378,22.3348019 Z M19.3486699,16.1132211 L22.5124185,18.8131702 L25.25,17.25 L23.7529281,19.8718234 L26.7495246,22.4291246 C26.9916265,21.8336643 27.125,21.1824077 27.125,20.5 C27.125,17.6695407 24.8304593,15.375 22,15.375 C21.0296103,15.375 20.1222115,15.6446958 19.3486699,16.1132211 Z" id="Flat"></path>

</svg>